<svg id="visual" viewBox="0 0 960 300" width="960" height="300" xmlns="http://www.w3.org/2000/svg" xmlns:xlink="http://www.w3.org/1999/xlink" version="1.1"><rect x="0" y="0" width="960" height="300" fill="#0A1411"></rect><path d="M0 64L20 69C40 74 80 84 120 86.5C160 89 200 84 240 78.7C280 73.3 320 67.7 360 66.8C400 66 440 70 480 71.5C520 73 560 72 600 77.2C640 82.3 680 93.7 720 93.3C760 93 800 81 840 75C880 69 920 69 940 69L960 69L960 0L940 0C920 0 880 0 840 0C800 0 760 0 720 0C680 0 640 0 600 0C560 0 520 0 480 0C440 0 400 0 360 0C320 0 280 0 240 0C200 0 160 0 120 0C80 0 40 0 20 0L0 0Z" fill="#3aa684"></path><path d="M0 53L20 55C40 57 80 61 120 62.7C160 64.3 200 63.7 240 61C280 58.3 320 53.7 360 51.7C400 49.7 440 50.3 480 55.2C520 60 560 69 600 70.3C640 71.7 680 65.3 720 59.3C760 53.3 800 47.7 840 46C880 44.3 920 46.7 940 47.8L960 49L960 0L940 0C920 0 880 0 840 0C800 0 760 0 720 0C680 0 640 0 600 0C560 0 520 0 480 0C440 0 400 0 360 0C320 0 280 0 240 0C200 0 160 0 120 0C80 0 40 0 20 0L0 0Z" fill="#4bbe9a"></path><path d="M0 48L20 45.3C40 42.7 80 37.3 120 37.8C160 38.3 200 44.7 240 44.7C280 44.7 320 38.3 360 33.3C400 28.3 440 24.7 480 21C520 17.3 560 13.7 600 15C640 16.3 680 22.7 720 22.3C760 22 800 15 840 14.5C880 14 920 20 940 23L960 26L960 0L940 0C920 0 880 0 840 0C800 0 760 0 720 0C680 0 640 0 600 0C560 0 520 0 480 0C440 0 400 0 360 0C320 0 280 0 240 0C200 0 160 0 120 0C80 0 40 0 20 0L0 0Z" fill="#5bd7b0"></path></svg>